HIERARCHY
ROOT Hips
{
  OFFSET 159.195 91.9452 138.192
  CHANNELS 6 Xposition Yposition Zposition Zrotation Xrotation Yrotation
  JOINT ToSpine
  {
    OFFSET -0.0105055 1.38907 -7.13956
    CHANNELS 3 Zrotation Xrotation Yrotation
    JOINT Spine
    {
      OFFSET 0.0105055 10 1
      CHANNELS 3 Zrotation Xrotation Yrotation
      JOINT Spine1
      {
        OFFSET 0 12 1.60637
        CHANNELS 3 Zrotation Xrotation Yrotation
        JOINT Neck
        {
          OFFSET 0 27 2.26658
          CHANNELS 3 Zrotation Xrotation Yrotation
          JOINT Head
          {
            OFFSET 0 9 2.12705
            CHANNELS 3 Zrotation Xrotation Yrotation
            End Site
            {
              OFFSET 0 11 2
            }
          }
        }
        JOINT LeftShoulder
        {
          OFFSET 8 19.6109 2.86452
          CHANNELS 3 Zrotation Xrotation Yrotation
          JOINT LeftArm
          {
            OFFSET 12 1 0.681055
            CHANNELS 3 Zrotation Xrotation Yrotation
            JOINT LeftForeArm
            {
              OFFSET 19 0 -1.52608
              CHANNELS 3 Zrotation Xrotation Yrotation
              JOINT LeftHand
              {
                OFFSET 23 0 0
                CHANNELS 3 Zrotation Xrotation Yrotation
                End Site
                {
                  OFFSET 10 0 0
                }
              }
            }
          }
        }
        JOINT RightShoulder
        {
          OFFSET -8 19.6109 2.86452
          CHANNELS 3 Zrotation Xrotation Yrotation
          JOINT RightArm
          {
            OFFSET -12 1 0.681055
            CHANNELS 3 Zrotation Xrotation Yrotation
            JOINT RightForeArm
            {
              OFFSET -19 0 -1.52608
              CHANNELS 3 Zrotation Xrotation Yrotation
              JOINT RightHand
              {
                OFFSET -23 0 0
                CHANNELS 3 Zrotation Xrotation Yrotation
                End Site
                {
                  OFFSET -10 0 0
                }
              }
            }
          }
        }
      }
    }
  }
  JOINT LeftUpLeg
  {
    OFFSET 9 -7.17245 0
    CHANNELS 3 Zrotation Xrotation Yrotation
    JOINT LeftLeg
    {
      OFFSET 0 -44.1113 0
      CHANNELS 3 Zrotation Xrotation Yrotation
      JOINT LeftFoot
      {
        OFFSET 0 -36.1829 0
        CHANNELS 3 Zrotation Xrotation Yrotation
        JOINT LeftToeBase
        {
          OFFSET 0 -4.84184 13
          CHANNELS 3 Zrotation Xrotation Yrotation
          End Site
          {
            OFFSET 0 1 6
          }
        }
      }
    }
  }
  JOINT RightUpLeg
  {
    OFFSET -9 -7.17245 0
    CHANNELS 3 Zrotation Xrotation Yrotation
    JOINT RightLeg
    {
      OFFSET 0 -44.0551 0
      CHANNELS 3 Zrotation Xrotation Yrotation
      JOINT RightFoot
      {
        OFFSET 0 -36.1469 0
        CHANNELS 3 Zrotation Xrotation Yrotation
        JOINT RightToeBase
        {
          OFFSET 0 -4.92256 13
          CHANNELS 3 Zrotation Xrotation Yrotation
          End Site
          {
            OFFSET 0 1 6
          }
        }
      }
    }
  }
}
MOTION
Frames:	8
Frame Time:	0.0333333
-153.481 98.6623 -142.424 -2.24978 3.22609 -129.402 0 0 0 2.4754 2.97806 0.921966 -2.76943 5.17384 1.38032 5.23976 -1.22178 -1.1014 -4.0919 -3.35502 1.22064 -31.429 3.57026 -6.00467 -40.1255 18.9849 -11.411 -3.21532 -12.4842 -15.9568 -7.12689 0.220413 -3.53828 26.3092 5.78567 14.1933 49.1998 8.05959 0.481275 1.46336 0.911995 10.1723 5.91295 0.144052 2.78866 8.51019 0.0494329 10.4231 -1.97609 15.6444 -17.9042 4.89851 -7.33925 0.314355 1.41279 -9.36049 -4.96558 -4.08412 4.65245 -8.52771 0.266453 7.95518 2.41673 -17.8648 -0.402798 -0.06331 4.35856 -16.6162 -5.14433 
-153.84 98.6558 -142.32 -2.3505 3.21185 -129.575 0 0 0 2.22771 3.03654 0.811304 -2.69957 5.10267 1.22669 4.959 -0.748307 -0.656328 -4.05733 -3.92351 1.57192 -31.9558 3.56825 -5.86858 -38.8772 16.7269 -12.8938 -2.69641 -10.1985 -18.997 -6.15993 0.19035 -3.53649 26.6957 5.71404 13.7815 49.3004 8.39785 -0.245989 1.6661 0.876414 9.41735 5.87706 0.136666 2.66192 8.15408 0.37485 10.3329 -2.00171 15.5214 -17.5789 5.34404 -7.32635 0.342382 1.41302 -9.59645 -4.92978 -4.48979 4.81277 -8.79662 0.297907 8.07409 2.89021 -17.0284 -0.822783 -0.123177 4.24229 -16.0907 -4.93976 
-154.159 98.6187 -142.134 -2.26657 3.12708 -129.856 0 0 0 2.49467 3.21172 0.640709 -3.42482 4.54446 1.17959 5.39346 -0.442256 -0.736416 -4.31354 -3.32829 1.70292 -30.8629 3.57635 -6.16524 -40.101 13.1154 -13.6138 -2.22946 -7.29017 -21.4008 -6.18801 0.182432 -3.37407 26.7007 5.73182 13.8321 50.3526 7.47161 -1.65348 1.45327 0.42484 10.2773 5.65029 0.135287 2.74095 7.84552 0.260351 10.188 -1.90624 15.8081 -17.1499 5.33776 -7.80624 0.364446 1.4324 -9.12942 -5.12254 -4.69857 4.68481 -8.68487 0.18913 8.1245 3.0903 -17.4454 -0.669747 -0.102758 4.34444 -16.5526 -5.1257 
-154.472 98.5986 -142.064 -2.30305 3.01819 -130.23 0 0 0 1.87899 3.21294 0.569301 -2.94499 3.97804 0.982675 5.55137 1.02111 -0.510887 -4.52186 -4.40008 2.04197 -30.7668 3.68094 -6.47242 -40.395 10.4538 -13.6844 -1.39341 -3.79324 -23.3787 -7.12716 0.223009 -3.57978 27.2482 5.92216 14.1197 50.1896 7.74104 -3.05423 1.46008 0.20787 10.8206 5.437 0.149809 3.15424 7.49267 0.426109 10.0753 -1.94621 15.8236 -16.6335 5.51576 -7.94852 0.383505 1.41101 -9.33724 -4.95808 -5.01859 4.49908 -8.71659 0.0379436 8.58245 3.41137 -17.1238 -1.13229 -0.170478 4.26512 -16.1889 -4.9334 
-154.754 98.5755 -142.03 -2.21672 3.00799 -130.623 0 0 0 2.11886 3.09277 0.298313 -3.54507 4.41983 0.836239 5.91233 -0.565457 -0.327642 -4.7671 -2.97484 2.35438 -30.3575 3.55092 -6.22803 -40.6594 8.70462 -14.0992 -0.755609 -1.55658 -25.8973 -7.0973 0.205854 -3.31851 27.3951 5.80529 13.7042 50.4772 7.89783 -3.01871 1.4246 -0.185759 11.8058 4.85274 0.147748 3.48574 7.44926 0.47677 10.1871 -2.08108 16.0825 -16.3309 5.7124 -8.22928 0.411276 1.43313 -9.23606 -5.11147 -5.17128 4.46786 -8.78524 0.14391 8.57681 3.792 -17.6903 -0.864955 -0.134603 4.43845 -16.9663 -5.16436 
-155.014 98.5549 -142.02 -2.33287 3.13508 -131 0 0 0 1.5495 3.16548 0.198937 -2.47826 4.68577 0.495436 4.40874 -0.961619 0.264667 -4.06984 -2.68223 2.35238 -31.7391 3.55883 -5.89721 -39.0168 9.46689 -14.9851 -0.660726 -1.36361 -25.8553 -7.34325 0.242675 -3.7804 26.5722 5.53047 13.2936 50.818 9.00885 -3.00938 1.84908 -1.9511 12.9949 4.28625 0.131565 3.51461 7.40383 0.822982 10.3383 -2.24244 16.2567 -16.0238 5.91784 -8.62482 0.446649 1.45915 -8.82915 -5.32845 -5.31235 4.71932 -8.83311 0.0764983 8.53522 4.34697 -17.4063 -0.833822 -0.127642 4.4211 -16.9189 -5.38963 
-155.228 98.5401 -142.038 -2.42045 3.21026 -131.596 0 0 0 1.05612 3.37283 0.227285 -1.98492 4.49183 0.411999 4.38721 -0.815603 0.707529 -4.06596 -2.92133 2.77916 -31.6934 3.58536 -5.97838 -39.4262 9.55932 -14.4241 -0.0997014 -0.201428 -26.3343 -6.94104 0.247054 -4.07199 26.1341 5.57092 13.6331 51.2922 8.49578 -3.25218 1.30979 -0.981921 13.7306 4.51771 0.140084 3.55024 7.1987 1.23933 10.2964 -2.2398 16.1286 -15.508 6.19266 -8.70483 0.471783 1.38857 -9.21404 -4.83765 -5.50171 4.79921 -8.89939 0.0857268 8.62658 4.96262 -17.6158 -0.765365 -0.118595 4.49829 -17.2293 -5.18449 
-155.451 98.546 -141.972 -2.31774 3.09503 -132.297 0 0 0 0.932663 3.39886 0.319879 -1.582 4.31512 0.415113 3.44515 -0.751135 1.06236 -3.51879 -2.86492 2.74915 -32.9206 3.59853 -5.71438 -38.2645 10.9401 -13.9162 -0.35154 -0.714382 -26.2022 -7.47794 0.250037 -3.8247 25.369 5.4215 13.5626 51.7456 8.81816 -3.07529 1.2503 -1.11831 14.5679 4.03102 0.129405 3.67588 6.81707 1.23383 10.0447 -1.98706 16.2097 -14.4194 5.4948 -9.21113 0.442975 1.50423 -8.61281 -5.6283 -5.7979 4.52599 -8.98987 0.0526376 8.7821 5.80216 -16.9944 -1.17385 -0.175381 4.33453 -16.5174 -5.19903 
